<svg id="Layer_1" data-name="Layer 1" xmlns="http://www.w3.org/2000/svg" viewBox="0 0 457.47 120"><defs><style>.cls-1{fill:#fa776c;}.cls-2{fill:#624cf5;}.cls-3{font-size:61.29px;font-family:FranklinGothic-Medium, Franklin Gothic Medium;font-weight:500;}.cls-4{letter-spacing:-0.01em;}</style></defs><title>eventhorizon</title><path class="cls-1" d="M0,27.66a10,10,0,0,1,15.15-8.57L40.29,34.17A20,20,0,0,1,50,51.32V68.68a20,20,0,0,1-9.71,17.15L15.14,100.91A10,10,0,0,1,0,92.34Z" transform="translate(0 0)"/><path class="cls-2" d="M103.86,0a6,6,0,0,1,4.31,10.17L94.9,23.9A20,20,0,0,1,80.52,30h-25a20,20,0,0,1-10.29-2.85l-26.68-16A6,6,0,0,1,21.66,0Z" transform="translate(0 0)"/><path class="cls-2" d="M103.86,120a6,6,0,0,0,4.31-10.17L94.9,96.1A20,20,0,0,0,80.52,90h-25a20,20,0,0,0-10.29,2.85l-26.68,16A6,6,0,0,0,21.66,120Z" transform="translate(0 0)"/><path class="cls-1" d="M71,45h0A15,15,0,0,1,86,60h0A15,15,0,0,1,71,75h0A15,15,0,0,1,56,60h0A15,15,0,0,1,71,45Z" transform="translate(0 0)"/><text class="cls-3" transform="translate(114.56 82.15)">E<tspan class="cls-4" x="32.89" y="0">v</tspan><tspan x="59.58" y="0">entHorizon</tspan></text></svg>